solid ASCII
  facet normal -9.396927e-01 3.420199e-01 0.000000e+00
    outer loop
      vertex   -1.635093e+01 -1.846418e+01 2.075000e+02
      vertex   -1.600000e+01 -1.750000e+01 2.125000e+02
      vertex   -1.600000e+01 -1.750000e+01 2.075000e+02
    endloop
  endfacet
  facet normal -9.396927e-01 -3.420199e-01 0.000000e+00
    outer loop
      vertex   -1.600000e+01 -1.750000e+01 2.075000e+02
      vertex   -1.600000e+01 -1.750000e+01 2.125000e+02
      vertex   -1.635093e+01 -1.653582e+01 2.125000e+02
    endloop
  endfacet
  facet normal -9.396927e-01 -3.420199e-01 0.000000e+00
    outer loop
      vertex   -1.600000e+01 -1.750000e+01 2.075000e+02
      vertex   -1.635093e+01 -1.653582e+01 2.125000e+02
      vertex   -1.635093e+01 -1.653582e+01 2.075000e+02
    endloop
  endfacet
  facet normal -5.000001e-01 -8.660254e-01 0.000000e+00
    outer loop
      vertex   -1.635093e+01 -1.653582e+01 2.075000e+02
      vertex   -1.635093e+01 -1.653582e+01 2.125000e+02
      vertex   -1.723953e+01 -1.602279e+01 2.125000e+02
    endloop
  endfacet
  facet normal -5.000001e-01 -8.660254e-01 0.000000e+00
    outer loop
      vertex   -1.635093e+01 -1.653582e+01 2.075000e+02
      vertex   -1.723953e+01 -1.602279e+01 2.125000e+02
      vertex   -1.723953e+01 -1.602279e+01 2.075000e+02
    endloop
  endfacet
  facet normal 1.736483e-01 -9.848077e-01 0.000000e+00
    outer loop
      vertex   -1.723953e+01 -1.602279e+01 2.075000e+02
      vertex   -1.723953e+01 -1.602279e+01 2.125000e+02
      vertex   -1.825000e+01 -1.620096e+01 2.125000e+02
    endloop
  endfacet
  facet normal 1.736483e-01 -9.848077e-01 0.000000e+00
    outer loop
      vertex   -1.723953e+01 -1.602279e+01 2.075000e+02
      vertex   -1.825000e+01 -1.620096e+01 2.125000e+02
      vertex   -1.825000e+01 -1.620096e+01 2.075000e+02
    endloop
  endfacet
  facet normal 7.660445e-01 -6.427875e-01 0.000000e+00
    outer loop
      vertex   -1.825000e+01 -1.620096e+01 2.075000e+02
      vertex   -1.825000e+01 -1.620096e+01 2.125000e+02
      vertex   -1.890954e+01 -1.698697e+01 2.125000e+02
    endloop
  endfacet
  facet normal 7.660445e-01 -6.427875e-01 0.000000e+00
    outer loop
      vertex   -1.825000e+01 -1.620096e+01 2.075000e+02
      vertex   -1.890954e+01 -1.698697e+01 2.125000e+02
      vertex   -1.890954e+01 -1.698697e+01 2.075000e+02
    endloop
  endfacet
  facet normal 1.000000e+00 0.000000e+00 -0.000000e+00
    outer loop
      vertex   -1.890954e+01 -1.698697e+01 2.075000e+02
      vertex   -1.890954e+01 -1.698697e+01 2.125000e+02
      vertex   -1.890954e+01 -1.801303e+01 2.125000e+02
    endloop
  endfacet
  facet normal 1.000000e+00 0.000000e+00 0.000000e+00
    outer loop
      vertex   -1.890954e+01 -1.698697e+01 2.075000e+02
      vertex   -1.890954e+01 -1.801303e+01 2.125000e+02
      vertex   -1.890954e+01 -1.801303e+01 2.075000e+02
    endloop
  endfacet
  facet normal 7.660445e-01 6.427875e-01 -0.000000e+00
    outer loop
      vertex   -1.890954e+01 -1.801303e+01 2.075000e+02
      vertex   -1.890954e+01 -1.801303e+01 2.125000e+02
      vertex   -1.825000e+01 -1.879904e+01 2.125000e+02
    endloop
  endfacet
  facet normal 7.660445e-01 6.427875e-01 0.000000e+00
    outer loop
      vertex   -1.890954e+01 -1.801303e+01 2.075000e+02
      vertex   -1.825000e+01 -1.879904e+01 2.125000e+02
      vertex   -1.825000e+01 -1.879904e+01 2.075000e+02
    endloop
  endfacet
  facet normal 1.736483e-01 9.848077e-01 -0.000000e+00
    outer loop
      vertex   -1.825000e+01 -1.879904e+01 2.075000e+02
      vertex   -1.825000e+01 -1.879904e+01 2.125000e+02
      vertex   -1.723953e+01 -1.897721e+01 2.125000e+02
    endloop
  endfacet
  facet normal 1.736483e-01 9.848077e-01 0.000000e+00
    outer loop
      vertex   -1.825000e+01 -1.879904e+01 2.075000e+02
      vertex   -1.723953e+01 -1.897721e+01 2.125000e+02
      vertex   -1.723953e+01 -1.897721e+01 2.075000e+02
    endloop
  endfacet
  facet normal -5.000001e-01 8.660254e-01 0.000000e+00
    outer loop
      vertex   -1.723953e+01 -1.897721e+01 2.075000e+02
      vertex   -1.723953e+01 -1.897721e+01 2.125000e+02
      vertex   -1.635093e+01 -1.846418e+01 2.125000e+02
    endloop
  endfacet
  facet normal -5.000001e-01 8.660254e-01 0.000000e+00
    outer loop
      vertex   -1.723953e+01 -1.897721e+01 2.075000e+02
      vertex   -1.635093e+01 -1.846418e+01 2.125000e+02
      vertex   -1.635093e+01 -1.846418e+01 2.075000e+02
    endloop
  endfacet
  facet normal -9.396927e-01 3.420199e-01 0.000000e+00
    outer loop
      vertex   -1.635093e+01 -1.846418e+01 2.075000e+02
      vertex   -1.635093e+01 -1.846418e+01 2.125000e+02
      vertex   -1.600000e+01 -1.750000e+01 2.125000e+02
    endloop
  endfacet
  facet normal 0.000000e+00 0.000000e+00 1.000000e+00
    outer loop
      vertex   -1.600000e+01 -1.750000e+01 2.075000e+02
      vertex   -1.635093e+01 -1.653582e+01 2.075000e+02
      vertex   -1.635093e+01 -1.846418e+01 2.075000e+02
    endloop
  endfacet
  facet normal 0.000000e+00 -0.000000e+00 1.000000e+00
    outer loop
      vertex   -1.635093e+01 -1.846418e+01 2.075000e+02
      vertex   -1.635093e+01 -1.653582e+01 2.075000e+02
      vertex   -1.723953e+01 -1.897721e+01 2.075000e+02
    endloop
  endfacet
  facet normal 0.000000e+00 0.000000e+00 1.000000e+00
    outer loop
      vertex   -1.723953e+01 -1.897721e+01 2.075000e+02
      vertex   -1.635093e+01 -1.653582e+01 2.075000e+02
      vertex   -1.723953e+01 -1.602279e+01 2.075000e+02
    endloop
  endfacet
  facet normal 0.000000e+00 -0.000000e+00 1.000000e+00
    outer loop
      vertex   -1.723953e+01 -1.897721e+01 2.075000e+02
      vertex   -1.723953e+01 -1.602279e+01 2.075000e+02
      vertex   -1.825000e+01 -1.879904e+01 2.075000e+02
    endloop
  endfacet
  facet normal 0.000000e+00 0.000000e+00 1.000000e+00
    outer loop
      vertex   -1.825000e+01 -1.879904e+01 2.075000e+02
      vertex   -1.723953e+01 -1.602279e+01 2.075000e+02
      vertex   -1.825000e+01 -1.620096e+01 2.075000e+02
    endloop
  endfacet
  facet normal 0.000000e+00 -0.000000e+00 1.000000e+00
    outer loop
      vertex   -1.825000e+01 -1.879904e+01 2.075000e+02
      vertex   -1.825000e+01 -1.620096e+01 2.075000e+02
      vertex   -1.890954e+01 -1.801303e+01 2.075000e+02
    endloop
  endfacet
  facet normal 0.000000e+00 0.000000e+00 1.000000e+00
    outer loop
      vertex   -1.890954e+01 -1.801303e+01 2.075000e+02
      vertex   -1.825000e+01 -1.620096e+01 2.075000e+02
      vertex   -1.890954e+01 -1.698697e+01 2.075000e+02
    endloop
  endfacet
  facet normal -9.396927e-01 3.420199e-01 0.000000e+00
    outer loop
      vertex   1.864907e+01 1.653582e+01 2.075000e+02
      vertex   1.900000e+01 1.750000e+01 2.125000e+02
      vertex   1.900000e+01 1.750000e+01 2.075000e+02
    endloop
  endfacet
  facet normal -9.396927e-01 -3.420199e-01 0.000000e+00
    outer loop
      vertex   1.900000e+01 1.750000e+01 2.075000e+02
      vertex   1.900000e+01 1.750000e+01 2.125000e+02
      vertex   1.864907e+01 1.846418e+01 2.125000e+02
    endloop
  endfacet
  facet normal -9.396927e-01 -3.420199e-01 0.000000e+00
    outer loop
      vertex   1.900000e+01 1.750000e+01 2.075000e+02
      vertex   1.864907e+01 1.846418e+01 2.125000e+02
      vertex   1.864907e+01 1.846418e+01 2.075000e+02
    endloop
  endfacet
  facet normal -5.000001e-01 -8.660254e-01 0.000000e+00
    outer loop
      vertex   1.864907e+01 1.846418e+01 2.075000e+02
      vertex   1.864907e+01 1.846418e+01 2.125000e+02
      vertex   1.776047e+01 1.897721e+01 2.125000e+02
    endloop
  endfacet
  facet normal -5.000001e-01 -8.660254e-01 0.000000e+00
    outer loop
      vertex   1.864907e+01 1.846418e+01 2.075000e+02
      vertex   1.776047e+01 1.897721e+01 2.125000e+02
      vertex   1.776047e+01 1.897721e+01 2.075000e+02
    endloop
  endfacet
  facet normal 1.736483e-01 -9.848077e-01 0.000000e+00
    outer loop
      vertex   1.776047e+01 1.897721e+01 2.075000e+02
      vertex   1.776047e+01 1.897721e+01 2.125000e+02
      vertex   1.675000e+01 1.879904e+01 2.125000e+02
    endloop
  endfacet
  facet normal 1.736483e-01 -9.848077e-01 0.000000e+00
    outer loop
      vertex   1.776047e+01 1.897721e+01 2.075000e+02
      vertex   1.675000e+01 1.879904e+01 2.125000e+02
      vertex   1.675000e+01 1.879904e+01 2.075000e+02
    endloop
  endfacet
  facet normal 7.660445e-01 -6.427875e-01 0.000000e+00
    outer loop
      vertex   1.675000e+01 1.879904e+01 2.075000e+02
      vertex   1.675000e+01 1.879904e+01 2.125000e+02
      vertex   1.609046e+01 1.801303e+01 2.125000e+02
    endloop
  endfacet
  facet normal 7.660445e-01 -6.427875e-01 0.000000e+00
    outer loop
      vertex   1.675000e+01 1.879904e+01 2.075000e+02
      vertex   1.609046e+01 1.801303e+01 2.125000e+02
      vertex   1.609046e+01 1.801303e+01 2.075000e+02
    endloop
  endfacet
  facet normal 1.000000e+00 0.000000e+00 -0.000000e+00
    outer loop
      vertex   1.609046e+01 1.801303e+01 2.075000e+02
      vertex   1.609046e+01 1.801303e+01 2.125000e+02
      vertex   1.609046e+01 1.698697e+01 2.125000e+02
    endloop
  endfacet
  facet normal 1.000000e+00 0.000000e+00 0.000000e+00
    outer loop
      vertex   1.609046e+01 1.801303e+01 2.075000e+02
      vertex   1.609046e+01 1.698697e+01 2.125000e+02
      vertex   1.609046e+01 1.698697e+01 2.075000e+02
    endloop
  endfacet
  facet normal 7.660445e-01 6.427875e-01 -0.000000e+00
    outer loop
      vertex   1.609046e+01 1.698697e+01 2.075000e+02
      vertex   1.609046e+01 1.698697e+01 2.125000e+02
      vertex   1.675000e+01 1.620096e+01 2.125000e+02
    endloop
  endfacet
  facet normal 7.660445e-01 6.427875e-01 0.000000e+00
    outer loop
      vertex   1.609046e+01 1.698697e+01 2.075000e+02
      vertex   1.675000e+01 1.620096e+01 2.125000e+02
      vertex   1.675000e+01 1.620096e+01 2.075000e+02
    endloop
  endfacet
  facet normal 1.736483e-01 9.848077e-01 -0.000000e+00
    outer loop
      vertex   1.675000e+01 1.620096e+01 2.075000e+02
      vertex   1.675000e+01 1.620096e+01 2.125000e+02
      vertex   1.776047e+01 1.602279e+01 2.125000e+02
    endloop
  endfacet
  facet normal 1.736483e-01 9.848077e-01 0.000000e+00
    outer loop
      vertex   1.675000e+01 1.620096e+01 2.075000e+02
      vertex   1.776047e+01 1.602279e+01 2.125000e+02
      vertex   1.776047e+01 1.602279e+01 2.075000e+02
    endloop
  endfacet
  facet normal -5.000001e-01 8.660254e-01 0.000000e+00
    outer loop
      vertex   1.776047e+01 1.602279e+01 2.075000e+02
      vertex   1.776047e+01 1.602279e+01 2.125000e+02
      vertex   1.864907e+01 1.653582e+01 2.125000e+02
    endloop
  endfacet
  facet normal -5.000001e-01 8.660254e-01 0.000000e+00
    outer loop
      vertex   1.776047e+01 1.602279e+01 2.075000e+02
      vertex   1.864907e+01 1.653582e+01 2.125000e+02
      vertex   1.864907e+01 1.653582e+01 2.075000e+02
    endloop
  endfacet
  facet normal -9.396927e-01 3.420199e-01 0.000000e+00
    outer loop
      vertex   1.864907e+01 1.653582e+01 2.075000e+02
      vertex   1.864907e+01 1.653582e+01 2.125000e+02
      vertex   1.900000e+01 1.750000e+01 2.125000e+02
    endloop
  endfacet
  facet normal 0.000000e+00 0.000000e+00 1.000000e+00
    outer loop
      vertex   1.900000e+01 1.750000e+01 2.075000e+02
      vertex   1.864907e+01 1.846418e+01 2.075000e+02
      vertex   1.864907e+01 1.653582e+01 2.075000e+02
    endloop
  endfacet
  facet normal 0.000000e+00 -0.000000e+00 1.000000e+00
    outer loop
      vertex   1.864907e+01 1.653582e+01 2.075000e+02
      vertex   1.864907e+01 1.846418e+01 2.075000e+02
      vertex   1.776047e+01 1.602279e+01 2.075000e+02
    endloop
  endfacet
  facet normal 0.000000e+00 0.000000e+00 1.000000e+00
    outer loop
      vertex   1.776047e+01 1.602279e+01 2.075000e+02
      vertex   1.864907e+01 1.846418e+01 2.075000e+02
      vertex   1.776047e+01 1.897721e+01 2.075000e+02
    endloop
  endfacet
  facet normal 0.000000e+00 -0.000000e+00 1.000000e+00
    outer loop
      vertex   1.776047e+01 1.602279e+01 2.075000e+02
      vertex   1.776047e+01 1.897721e+01 2.075000e+02
      vertex   1.675000e+01 1.620096e+01 2.075000e+02
    endloop
  endfacet
  facet normal 0.000000e+00 0.000000e+00 1.000000e+00
    outer loop
      vertex   1.675000e+01 1.620096e+01 2.075000e+02
      vertex   1.776047e+01 1.897721e+01 2.075000e+02
      vertex   1.675000e+01 1.879904e+01 2.075000e+02
    endloop
  endfacet
  facet normal 0.000000e+00 -0.000000e+00 1.000000e+00
    outer loop
      vertex   1.675000e+01 1.620096e+01 2.075000e+02
      vertex   1.675000e+01 1.879904e+01 2.075000e+02
      vertex   1.609046e+01 1.698697e+01 2.075000e+02
    endloop
  endfacet
  facet normal 0.000000e+00 0.000000e+00 1.000000e+00
    outer loop
      vertex   1.609046e+01 1.698697e+01 2.075000e+02
      vertex   1.675000e+01 1.879904e+01 2.075000e+02
      vertex   1.609046e+01 1.801303e+01 2.075000e+02
    endloop
  endfacet
  facet normal -9.396927e-01 3.420199e-01 0.000000e+00
    outer loop
      vertex   1.864907e+01 -1.846418e+01 2.075000e+02
      vertex   1.900000e+01 -1.750000e+01 2.125000e+02
      vertex   1.900000e+01 -1.750000e+01 2.075000e+02
    endloop
  endfacet
  facet normal -9.396927e-01 -3.420199e-01 0.000000e+00
    outer loop
      vertex   1.900000e+01 -1.750000e+01 2.075000e+02
      vertex   1.900000e+01 -1.750000e+01 2.125000e+02
      vertex   1.864907e+01 -1.653582e+01 2.125000e+02
    endloop
  endfacet
  facet normal -9.396927e-01 -3.420199e-01 0.000000e+00
    outer loop
      vertex   1.900000e+01 -1.750000e+01 2.075000e+02
      vertex   1.864907e+01 -1.653582e+01 2.125000e+02
      vertex   1.864907e+01 -1.653582e+01 2.075000e+02
    endloop
  endfacet
  facet normal -5.000001e-01 -8.660254e-01 0.000000e+00
    outer loop
      vertex   1.864907e+01 -1.653582e+01 2.075000e+02
      vertex   1.864907e+01 -1.653582e+01 2.125000e+02
      vertex   1.776047e+01 -1.602279e+01 2.125000e+02
    endloop
  endfacet
  facet normal -5.000001e-01 -8.660254e-01 0.000000e+00
    outer loop
      vertex   1.864907e+01 -1.653582e+01 2.075000e+02
      vertex   1.776047e+01 -1.602279e+01 2.125000e+02
      vertex   1.776047e+01 -1.602279e+01 2.075000e+02
    endloop
  endfacet
  facet normal 1.736483e-01 -9.848077e-01 0.000000e+00
    outer loop
      vertex   1.776047e+01 -1.602279e+01 2.075000e+02
      vertex   1.776047e+01 -1.602279e+01 2.125000e+02
      vertex   1.675000e+01 -1.620096e+01 2.125000e+02
    endloop
  endfacet
  facet normal 1.736483e-01 -9.848077e-01 0.000000e+00
    outer loop
      vertex   1.776047e+01 -1.602279e+01 2.075000e+02
      vertex   1.675000e+01 -1.620096e+01 2.125000e+02
      vertex   1.675000e+01 -1.620096e+01 2.075000e+02
    endloop
  endfacet
  facet normal 7.660445e-01 -6.427875e-01 0.000000e+00
    outer loop
      vertex   1.675000e+01 -1.620096e+01 2.075000e+02
      vertex   1.675000e+01 -1.620096e+01 2.125000e+02
      vertex   1.609046e+01 -1.698697e+01 2.125000e+02
    endloop
  endfacet
  facet normal 7.660445e-01 -6.427875e-01 0.000000e+00
    outer loop
      vertex   1.675000e+01 -1.620096e+01 2.075000e+02
      vertex   1.609046e+01 -1.698697e+01 2.125000e+02
      vertex   1.609046e+01 -1.698697e+01 2.075000e+02
    endloop
  endfacet
  facet normal 1.000000e+00 0.000000e+00 -0.000000e+00
    outer loop
      vertex   1.609046e+01 -1.698697e+01 2.075000e+02
      vertex   1.609046e+01 -1.698697e+01 2.125000e+02
      vertex   1.609046e+01 -1.801303e+01 2.125000e+02
    endloop
  endfacet
  facet normal 1.000000e+00 0.000000e+00 0.000000e+00
    outer loop
      vertex   1.609046e+01 -1.698697e+01 2.075000e+02
      vertex   1.609046e+01 -1.801303e+01 2.125000e+02
      vertex   1.609046e+01 -1.801303e+01 2.075000e+02
    endloop
  endfacet
  facet normal 7.660445e-01 6.427875e-01 -0.000000e+00
    outer loop
      vertex   1.609046e+01 -1.801303e+01 2.075000e+02
      vertex   1.609046e+01 -1.801303e+01 2.125000e+02
      vertex   1.675000e+01 -1.879904e+01 2.125000e+02
    endloop
  endfacet
  facet normal 7.660445e-01 6.427875e-01 0.000000e+00
    outer loop
      vertex   1.609046e+01 -1.801303e+01 2.075000e+02
      vertex   1.675000e+01 -1.879904e+01 2.125000e+02
      vertex   1.675000e+01 -1.879904e+01 2.075000e+02
    endloop
  endfacet
  facet normal 1.736483e-01 9.848077e-01 -0.000000e+00
    outer loop
      vertex   1.675000e+01 -1.879904e+01 2.075000e+02
      vertex   1.675000e+01 -1.879904e+01 2.125000e+02
      vertex   1.776047e+01 -1.897721e+01 2.125000e+02
    endloop
  endfacet
  facet normal 1.736483e-01 9.848077e-01 0.000000e+00
    outer loop
      vertex   1.675000e+01 -1.879904e+01 2.075000e+02
      vertex   1.776047e+01 -1.897721e+01 2.125000e+02
      vertex   1.776047e+01 -1.897721e+01 2.075000e+02
    endloop
  endfacet
  facet normal -5.000001e-01 8.660254e-01 0.000000e+00
    outer loop
      vertex   1.776047e+01 -1.897721e+01 2.075000e+02
      vertex   1.776047e+01 -1.897721e+01 2.125000e+02
      vertex   1.864907e+01 -1.846418e+01 2.125000e+02
    endloop
  endfacet
  facet normal -5.000001e-01 8.660254e-01 0.000000e+00
    outer loop
      vertex   1.776047e+01 -1.897721e+01 2.075000e+02
      vertex   1.864907e+01 -1.846418e+01 2.125000e+02
      vertex   1.864907e+01 -1.846418e+01 2.075000e+02
    endloop
  endfacet
  facet normal -9.396927e-01 3.420199e-01 0.000000e+00
    outer loop
      vertex   1.864907e+01 -1.846418e+01 2.075000e+02
      vertex   1.864907e+01 -1.846418e+01 2.125000e+02
      vertex   1.900000e+01 -1.750000e+01 2.125000e+02
    endloop
  endfacet
  facet normal 0.000000e+00 0.000000e+00 1.000000e+00
    outer loop
      vertex   1.900000e+01 -1.750000e+01 2.075000e+02
      vertex   1.864907e+01 -1.653582e+01 2.075000e+02
      vertex   1.864907e+01 -1.846418e+01 2.075000e+02
    endloop
  endfacet
  facet normal 0.000000e+00 -0.000000e+00 1.000000e+00
    outer loop
      vertex   1.864907e+01 -1.846418e+01 2.075000e+02
      vertex   1.864907e+01 -1.653582e+01 2.075000e+02
      vertex   1.776047e+01 -1.897721e+01 2.075000e+02
    endloop
  endfacet
  facet normal 0.000000e+00 0.000000e+00 1.000000e+00
    outer loop
      vertex   1.776047e+01 -1.897721e+01 2.075000e+02
      vertex   1.864907e+01 -1.653582e+01 2.075000e+02
      vertex   1.776047e+01 -1.602279e+01 2.075000e+02
    endloop
  endfacet
  facet normal 0.000000e+00 -0.000000e+00 1.000000e+00
    outer loop
      vertex   1.776047e+01 -1.897721e+01 2.075000e+02
      vertex   1.776047e+01 -1.602279e+01 2.075000e+02
      vertex   1.675000e+01 -1.879904e+01 2.075000e+02
    endloop
  endfacet
  facet normal 0.000000e+00 0.000000e+00 1.000000e+00
    outer loop
      vertex   1.675000e+01 -1.879904e+01 2.075000e+02
      vertex   1.776047e+01 -1.602279e+01 2.075000e+02
      vertex   1.675000e+01 -1.620096e+01 2.075000e+02
    endloop
  endfacet
  facet normal 0.000000e+00 -0.000000e+00 1.000000e+00
    outer loop
      vertex   1.675000e+01 -1.879904e+01 2.075000e+02
      vertex   1.675000e+01 -1.620096e+01 2.075000e+02
      vertex   1.609046e+01 -1.801303e+01 2.075000e+02
    endloop
  endfacet
  facet normal 0.000000e+00 0.000000e+00 1.000000e+00
    outer loop
      vertex   1.609046e+01 -1.801303e+01 2.075000e+02
      vertex   1.675000e+01 -1.620096e+01 2.075000e+02
      vertex   1.609046e+01 -1.698697e+01 2.075000e+02
    endloop
  endfacet
  facet normal -9.396927e-01 3.420199e-01 0.000000e+00
    outer loop
      vertex   -1.635093e+01 1.653582e+01 2.075000e+02
      vertex   -1.600000e+01 1.750000e+01 2.125000e+02
      vertex   -1.600000e+01 1.750000e+01 2.075000e+02
    endloop
  endfacet
  facet normal -9.396927e-01 -3.420199e-01 0.000000e+00
    outer loop
      vertex   -1.600000e+01 1.750000e+01 2.075000e+02
      vertex   -1.600000e+01 1.750000e+01 2.125000e+02
      vertex   -1.635093e+01 1.846418e+01 2.125000e+02
    endloop
  endfacet
  facet normal -9.396927e-01 -3.420199e-01 0.000000e+00
    outer loop
      vertex   -1.600000e+01 1.750000e+01 2.075000e+02
      vertex   -1.635093e+01 1.846418e+01 2.125000e+02
      vertex   -1.635093e+01 1.846418e+01 2.075000e+02
    endloop
  endfacet
  facet normal -5.000001e-01 -8.660254e-01 0.000000e+00
    outer loop
      vertex   -1.635093e+01 1.846418e+01 2.075000e+02
      vertex   -1.635093e+01 1.846418e+01 2.125000e+02
      vertex   -1.723953e+01 1.897721e+01 2.125000e+02
    endloop
  endfacet
  facet normal -5.000001e-01 -8.660254e-01 0.000000e+00
    outer loop
      vertex   -1.635093e+01 1.846418e+01 2.075000e+02
      vertex   -1.723953e+01 1.897721e+01 2.125000e+02
      vertex   -1.723953e+01 1.897721e+01 2.075000e+02
    endloop
  endfacet
  facet normal 1.736483e-01 -9.848077e-01 0.000000e+00
    outer loop
      vertex   -1.723953e+01 1.897721e+01 2.075000e+02
      vertex   -1.723953e+01 1.897721e+01 2.125000e+02
      vertex   -1.825000e+01 1.879904e+01 2.125000e+02
    endloop
  endfacet
  facet normal 1.736483e-01 -9.848077e-01 0.000000e+00
    outer loop
      vertex   -1.723953e+01 1.897721e+01 2.075000e+02
      vertex   -1.825000e+01 1.879904e+01 2.125000e+02
      vertex   -1.825000e+01 1.879904e+01 2.075000e+02
    endloop
  endfacet
  facet normal 7.660445e-01 -6.427875e-01 0.000000e+00
    outer loop
      vertex   -1.825000e+01 1.879904e+01 2.075000e+02
      vertex   -1.825000e+01 1.879904e+01 2.125000e+02
      vertex   -1.890954e+01 1.801303e+01 2.125000e+02
    endloop
  endfacet
  facet normal 7.660445e-01 -6.427875e-01 0.000000e+00
    outer loop
      vertex   -1.825000e+01 1.879904e+01 2.075000e+02
      vertex   -1.890954e+01 1.801303e+01 2.125000e+02
      vertex   -1.890954e+01 1.801303e+01 2.075000e+02
    endloop
  endfacet
  facet normal 1.000000e+00 0.000000e+00 -0.000000e+00
    outer loop
      vertex   -1.890954e+01 1.801303e+01 2.075000e+02
      vertex   -1.890954e+01 1.801303e+01 2.125000e+02
      vertex   -1.890954e+01 1.698697e+01 2.125000e+02
    endloop
  endfacet
  facet normal 1.000000e+00 0.000000e+00 0.000000e+00
    outer loop
      vertex   -1.890954e+01 1.801303e+01 2.075000e+02
      vertex   -1.890954e+01 1.698697e+01 2.125000e+02
      vertex   -1.890954e+01 1.698697e+01 2.075000e+02
    endloop
  endfacet
  facet normal 7.660445e-01 6.427875e-01 -0.000000e+00
    outer loop
      vertex   -1.890954e+01 1.698697e+01 2.075000e+02
      vertex   -1.890954e+01 1.698697e+01 2.125000e+02
      vertex   -1.825000e+01 1.620096e+01 2.125000e+02
    endloop
  endfacet
  facet normal 7.660445e-01 6.427875e-01 0.000000e+00
    outer loop
      vertex   -1.890954e+01 1.698697e+01 2.075000e+02
      vertex   -1.825000e+01 1.620096e+01 2.125000e+02
      vertex   -1.825000e+01 1.620096e+01 2.075000e+02
    endloop
  endfacet
  facet normal 1.736483e-01 9.848077e-01 -0.000000e+00
    outer loop
      vertex   -1.825000e+01 1.620096e+01 2.075000e+02
      vertex   -1.825000e+01 1.620096e+01 2.125000e+02
      vertex   -1.723953e+01 1.602279e+01 2.125000e+02
    endloop
  endfacet
  facet normal 1.736483e-01 9.848077e-01 0.000000e+00
    outer loop
      vertex   -1.825000e+01 1.620096e+01 2.075000e+02
      vertex   -1.723953e+01 1.602279e+01 2.125000e+02
      vertex   -1.723953e+01 1.602279e+01 2.075000e+02
    endloop
  endfacet
  facet normal -5.000001e-01 8.660254e-01 0.000000e+00
    outer loop
      vertex   -1.723953e+01 1.602279e+01 2.075000e+02
      vertex   -1.723953e+01 1.602279e+01 2.125000e+02
      vertex   -1.635093e+01 1.653582e+01 2.125000e+02
    endloop
  endfacet
  facet normal -5.000001e-01 8.660254e-01 0.000000e+00
    outer loop
      vertex   -1.723953e+01 1.602279e+01 2.075000e+02
      vertex   -1.635093e+01 1.653582e+01 2.125000e+02
      vertex   -1.635093e+01 1.653582e+01 2.075000e+02
    endloop
  endfacet
  facet normal -9.396927e-01 3.420199e-01 0.000000e+00
    outer loop
      vertex   -1.635093e+01 1.653582e+01 2.075000e+02
      vertex   -1.635093e+01 1.653582e+01 2.125000e+02
      vertex   -1.600000e+01 1.750000e+01 2.125000e+02
    endloop
  endfacet
  facet normal 0.000000e+00 0.000000e+00 1.000000e+00
    outer loop
      vertex   -1.600000e+01 1.750000e+01 2.075000e+02
      vertex   -1.635093e+01 1.846418e+01 2.075000e+02
      vertex   -1.635093e+01 1.653582e+01 2.075000e+02
    endloop
  endfacet
  facet normal 0.000000e+00 -0.000000e+00 1.000000e+00
    outer loop
      vertex   -1.635093e+01 1.653582e+01 2.075000e+02
      vertex   -1.635093e+01 1.846418e+01 2.075000e+02
      vertex   -1.723953e+01 1.602279e+01 2.075000e+02
    endloop
  endfacet
  facet normal 0.000000e+00 0.000000e+00 1.000000e+00
    outer loop
      vertex   -1.723953e+01 1.602279e+01 2.075000e+02
      vertex   -1.635093e+01 1.846418e+01 2.075000e+02
      vertex   -1.723953e+01 1.897721e+01 2.075000e+02
    endloop
  endfacet
  facet normal 0.000000e+00 -0.000000e+00 1.000000e+00
    outer loop
      vertex   -1.723953e+01 1.602279e+01 2.075000e+02
      vertex   -1.723953e+01 1.897721e+01 2.075000e+02
      vertex   -1.825000e+01 1.620096e+01 2.075000e+02
    endloop
  endfacet
  facet normal 0.000000e+00 0.000000e+00 1.000000e+00
    outer loop
      vertex   -1.825000e+01 1.620096e+01 2.075000e+02
      vertex   -1.723953e+01 1.897721e+01 2.075000e+02
      vertex   -1.825000e+01 1.879904e+01 2.075000e+02
    endloop
  endfacet
  facet normal 0.000000e+00 -0.000000e+00 1.000000e+00
    outer loop
      vertex   -1.825000e+01 1.620096e+01 2.075000e+02
      vertex   -1.825000e+01 1.879904e+01 2.075000e+02
      vertex   -1.890954e+01 1.698697e+01 2.075000e+02
    endloop
  endfacet
  facet normal 0.000000e+00 0.000000e+00 1.000000e+00
    outer loop
      vertex   -1.890954e+01 1.698697e+01 2.075000e+02
      vertex   -1.825000e+01 1.879904e+01 2.075000e+02
      vertex   -1.890954e+01 1.801303e+01 2.075000e+02
    endloop
  endfacet
  facet normal 1.000000e+00 0.000000e+00 0.000000e+00
    outer loop
      vertex   -9.100000e+00 -9.100000e+00 7.500000e+00
      vertex   -9.100000e+00 9.100000e+00 7.500000e+00
      vertex   -9.100000e+00 -9.100000e+00 1.250000e+01
    endloop
  endfacet
  facet normal 1.000000e+00 -0.000000e+00 0.000000e+00
    outer loop
      vertex   -9.100000e+00 -9.100000e+00 1.250000e+01
      vertex   -9.100000e+00 9.100000e+00 7.500000e+00
      vertex   -9.100000e+00 9.100000e+00 1.250000e+01
    endloop
  endfacet
  facet normal 0.000000e+00 -1.000000e+00 0.000000e+00
    outer loop
      vertex   -9.100000e+00 9.100000e+00 7.500000e+00
      vertex   9.100000e+00 9.100000e+00 7.500000e+00
      vertex   -9.100000e+00 9.100000e+00 1.250000e+01
    endloop
  endfacet
  facet normal 0.000000e+00 -1.000000e+00 0.000000e+00
    outer loop
      vertex   -9.100000e+00 9.100000e+00 1.250000e+01
      vertex   9.100000e+00 9.100000e+00 7.500000e+00
      vertex   9.100000e+00 9.100000e+00 1.250000e+01
    endloop
  endfacet
  facet normal -1.000000e+00 0.000000e+00 0.000000e+00
    outer loop
      vertex   9.100000e+00 9.100000e+00 7.500000e+00
      vertex   9.100000e+00 -9.100000e+00 7.500000e+00
      vertex   9.100000e+00 9.100000e+00 1.250000e+01
    endloop
  endfacet
  facet normal -1.000000e+00 -0.000000e+00 0.000000e+00
    outer loop
      vertex   9.100000e+00 9.100000e+00 1.250000e+01
      vertex   9.100000e+00 -9.100000e+00 7.500000e+00
      vertex   9.100000e+00 -9.100000e+00 1.250000e+01
    endloop
  endfacet
  facet normal 0.000000e+00 1.000000e+00 -0.000000e+00
    outer loop
      vertex   9.100000e+00 -9.100000e+00 7.500000e+00
      vertex   -9.100000e+00 -9.100000e+00 7.500000e+00
      vertex   9.100000e+00 -9.100000e+00 1.250000e+01
    endloop
  endfacet
  facet normal 0.000000e+00 1.000000e+00 0.000000e+00
    outer loop
      vertex   9.100000e+00 -9.100000e+00 1.250000e+01
      vertex   -9.100000e+00 -9.100000e+00 7.500000e+00
      vertex   -9.100000e+00 -9.100000e+00 1.250000e+01
    endloop
  endfacet
  facet normal 1.000000e+00 0.000000e+00 0.000000e+00
    outer loop
      vertex   -1.260000e+01 -1.260000e+01 0.000000e+00
      vertex   -1.260000e+01 1.260000e+01 0.000000e+00
      vertex   -1.260000e+01 -1.260000e+01 7.500000e+00
    endloop
  endfacet
  facet normal 1.000000e+00 -0.000000e+00 0.000000e+00
    outer loop
      vertex   -1.260000e+01 -1.260000e+01 7.500000e+00
      vertex   -1.260000e+01 1.260000e+01 0.000000e+00
      vertex   -1.260000e+01 1.260000e+01 7.500000e+00
    endloop
  endfacet
  facet normal 0.000000e+00 -1.000000e+00 0.000000e+00
    outer loop
      vertex   -1.260000e+01 1.260000e+01 0.000000e+00
      vertex   1.260000e+01 1.260000e+01 0.000000e+00
      vertex   -1.260000e+01 1.260000e+01 7.500000e+00
    endloop
  endfacet
  facet normal 0.000000e+00 -1.000000e+00 0.000000e+00
    outer loop
      vertex   -1.260000e+01 1.260000e+01 7.500000e+00
      vertex   1.260000e+01 1.260000e+01 0.000000e+00
      vertex   1.260000e+01 1.260000e+01 7.500000e+00
    endloop
  endfacet
  facet normal -1.000000e+00 0.000000e+00 0.000000e+00
    outer loop
      vertex   1.260000e+01 1.260000e+01 0.000000e+00
      vertex   1.260000e+01 -1.260000e+01 0.000000e+00
      vertex   1.260000e+01 1.260000e+01 7.500000e+00
    endloop
  endfacet
  facet normal -1.000000e+00 -0.000000e+00 0.000000e+00
    outer loop
      vertex   1.260000e+01 1.260000e+01 7.500000e+00
      vertex   1.260000e+01 -1.260000e+01 0.000000e+00
      vertex   1.260000e+01 -1.260000e+01 7.500000e+00
    endloop
  endfacet
  facet normal 0.000000e+00 1.000000e+00 -0.000000e+00
    outer loop
      vertex   1.260000e+01 -1.260000e+01 0.000000e+00
      vertex   -1.260000e+01 -1.260000e+01 0.000000e+00
      vertex   1.260000e+01 -1.260000e+01 7.500000e+00
    endloop
  endfacet
  facet normal 0.000000e+00 1.000000e+00 0.000000e+00
    outer loop
      vertex   1.260000e+01 -1.260000e+01 7.500000e+00
      vertex   -1.260000e+01 -1.260000e+01 0.000000e+00
      vertex   -1.260000e+01 -1.260000e+01 7.500000e+00
    endloop
  endfacet
  facet normal -0.000000e+00 0.000000e+00 -1.000000e+00
    outer loop
      vertex   -9.100000e+00 -9.100000e+00 7.500000e+00
      vertex   -1.260000e+01 -1.260000e+01 7.500000e+00
      vertex   -9.100000e+00 9.100000e+00 7.500000e+00
    endloop
  endfacet
  facet normal -0.000000e+00 0.000000e+00 -1.000000e+00
    outer loop
      vertex   -9.100000e+00 9.100000e+00 7.500000e+00
      vertex   -1.260000e+01 -1.260000e+01 7.500000e+00
      vertex   -1.260000e+01 1.260000e+01 7.500000e+00
    endloop
  endfacet
  facet normal 0.000000e+00 0.000000e+00 -1.000000e+00
    outer loop
      vertex   -9.100000e+00 9.100000e+00 7.500000e+00
      vertex   -1.260000e+01 1.260000e+01 7.500000e+00
      vertex   1.260000e+01 1.260000e+01 7.500000e+00
    endloop
  endfacet
  facet normal 0.000000e+00 -0.000000e+00 -1.000000e+00
    outer loop
      vertex   -9.100000e+00 -9.100000e+00 7.500000e+00
      vertex   9.100000e+00 -9.100000e+00 7.500000e+00
      vertex   -1.260000e+01 -1.260000e+01 7.500000e+00
    endloop
  endfacet
  facet normal 0.000000e+00 0.000000e+00 -1.000000e+00
    outer loop
      vertex   -1.260000e+01 -1.260000e+01 7.500000e+00
      vertex   9.100000e+00 -9.100000e+00 7.500000e+00
      vertex   1.260000e+01 -1.260000e+01 7.500000e+00
    endloop
  endfacet
  facet normal 0.000000e+00 0.000000e+00 -1.000000e+00
    outer loop
      vertex   1.260000e+01 -1.260000e+01 7.500000e+00
      vertex   9.100000e+00 -9.100000e+00 7.500000e+00
      vertex   9.100000e+00 9.100000e+00 7.500000e+00
    endloop
  endfacet
  facet normal 0.000000e+00 0.000000e+00 -1.000000e+00
    outer loop
      vertex   1.260000e+01 -1.260000e+01 7.500000e+00
      vertex   9.100000e+00 9.100000e+00 7.500000e+00
      vertex   1.260000e+01 1.260000e+01 7.500000e+00
    endloop
  endfacet
  facet normal 0.000000e+00 0.000000e+00 -1.000000e+00
    outer loop
      vertex   1.260000e+01 1.260000e+01 7.500000e+00
      vertex   9.100000e+00 9.100000e+00 7.500000e+00
      vertex   -9.100000e+00 9.100000e+00 7.500000e+00
    endloop
  endfacet
  facet normal -1.000000e+00 0.000000e+00 0.000000e+00
    outer loop
      vertex   1.510000e+01 -1.510000e+01 2.125000e+02
      vertex   1.510000e+01 1.510000e+01 2.125000e+02
      vertex   1.510000e+01 -1.510000e+01 1.250000e+01
    endloop
  endfacet
  facet normal -1.000000e+00 0.000000e+00 0.000000e+00
    outer loop
      vertex   1.510000e+01 -1.510000e+01 1.250000e+01
      vertex   1.510000e+01 1.510000e+01 2.125000e+02
      vertex   1.510000e+01 1.510000e+01 1.250000e+01
    endloop
  endfacet
  facet normal -0.000000e+00 -1.000000e+00 -0.000000e+00
    outer loop
      vertex   1.510000e+01 1.510000e+01 2.125000e+02
      vertex   -1.510000e+01 1.510000e+01 2.125000e+02
      vertex   1.510000e+01 1.510000e+01 1.250000e+01
    endloop
  endfacet
  facet normal 0.000000e+00 -1.000000e+00 0.000000e+00
    outer loop
      vertex   1.510000e+01 1.510000e+01 1.250000e+01
      vertex   -1.510000e+01 1.510000e+01 2.125000e+02
      vertex   -1.510000e+01 1.510000e+01 1.250000e+01
    endloop
  endfacet
  facet normal 1.000000e+00 0.000000e+00 0.000000e+00
    outer loop
      vertex   -1.510000e+01 1.510000e+01 2.125000e+02
      vertex   -1.510000e+01 -1.510000e+01 2.125000e+02
      vertex   -1.510000e+01 1.510000e+01 1.250000e+01
    endloop
  endfacet
  facet normal 1.000000e+00 0.000000e+00 0.000000e+00
    outer loop
      vertex   -1.510000e+01 1.510000e+01 1.250000e+01
      vertex   -1.510000e+01 -1.510000e+01 2.125000e+02
      vertex   -1.510000e+01 -1.510000e+01 1.250000e+01
    endloop
  endfacet
  facet normal -0.000000e+00 1.000000e+00 0.000000e+00
    outer loop
      vertex   -1.510000e+01 -1.510000e+01 2.125000e+02
      vertex   1.510000e+01 -1.510000e+01 2.125000e+02
      vertex   -1.510000e+01 -1.510000e+01 1.250000e+01
    endloop
  endfacet
  facet normal 0.000000e+00 1.000000e+00 0.000000e+00
    outer loop
      vertex   -1.510000e+01 -1.510000e+01 1.250000e+01
      vertex   1.510000e+01 -1.510000e+01 2.125000e+02
      vertex   1.510000e+01 -1.510000e+01 1.250000e+01
    endloop
  endfacet
  facet normal 0.000000e+00 0.000000e+00 1.000000e+00
    outer loop
      vertex   -9.100000e+00 9.100000e+00 1.250000e+01
      vertex   -1.510000e+01 -1.510000e+01 1.250000e+01
      vertex   -9.100000e+00 -9.100000e+00 1.250000e+01
    endloop
  endfacet
  facet normal 0.000000e+00 0.000000e+00 1.000000e+00
    outer loop
      vertex   -9.100000e+00 -9.100000e+00 1.250000e+01
      vertex   -1.510000e+01 -1.510000e+01 1.250000e+01
      vertex   1.510000e+01 -1.510000e+01 1.250000e+01
    endloop
  endfacet
  facet normal -0.000000e+00 0.000000e+00 1.000000e+00
    outer loop
      vertex   -9.100000e+00 -9.100000e+00 1.250000e+01
      vertex   1.510000e+01 -1.510000e+01 1.250000e+01
      vertex   9.100000e+00 -9.100000e+00 1.250000e+01
    endloop
  endfacet
  facet normal -0.000000e+00 0.000000e+00 1.000000e+00
    outer loop
      vertex   9.100000e+00 -9.100000e+00 1.250000e+01
      vertex   1.510000e+01 -1.510000e+01 1.250000e+01
      vertex   9.100000e+00 9.100000e+00 1.250000e+01
    endloop
  endfacet
  facet normal -0.000000e+00 0.000000e+00 1.000000e+00
    outer loop
      vertex   9.100000e+00 9.100000e+00 1.250000e+01
      vertex   1.510000e+01 -1.510000e+01 1.250000e+01
      vertex   1.510000e+01 1.510000e+01 1.250000e+01
    endloop
  endfacet
  facet normal 0.000000e+00 -0.000000e+00 1.000000e+00
    outer loop
      vertex   9.100000e+00 9.100000e+00 1.250000e+01
      vertex   1.510000e+01 1.510000e+01 1.250000e+01
      vertex   -1.510000e+01 1.510000e+01 1.250000e+01
    endloop
  endfacet
  facet normal 0.000000e+00 0.000000e+00 1.000000e+00
    outer loop
      vertex   -1.510000e+01 -1.510000e+01 1.250000e+01
      vertex   -9.100000e+00 9.100000e+00 1.250000e+01
      vertex   -1.510000e+01 1.510000e+01 1.250000e+01
    endloop
  endfacet
  facet normal 0.000000e+00 0.000000e+00 1.000000e+00
    outer loop
      vertex   -1.510000e+01 1.510000e+01 1.250000e+01
      vertex   -9.100000e+00 9.100000e+00 1.250000e+01
      vertex   9.100000e+00 9.100000e+00 1.250000e+01
    endloop
  endfacet
  facet normal -1.000000e+00 0.000000e+00 0.000000e+00
    outer loop
      vertex   -2.100000e+01 2.100000e+01 0.000000e+00
      vertex   -2.100000e+01 -2.100000e+01 0.000000e+00
      vertex   -2.100000e+01 2.100000e+01 2.125000e+02
    endloop
  endfacet
  facet normal -1.000000e+00 -0.000000e+00 0.000000e+00
    outer loop
      vertex   -2.100000e+01 2.100000e+01 2.125000e+02
      vertex   -2.100000e+01 -2.100000e+01 0.000000e+00
      vertex   -2.100000e+01 -2.100000e+01 2.125000e+02
    endloop
  endfacet
  facet normal 0.000000e+00 1.000000e+00 -0.000000e+00
    outer loop
      vertex   2.100000e+01 2.100000e+01 0.000000e+00
      vertex   -2.100000e+01 2.100000e+01 0.000000e+00
      vertex   2.100000e+01 2.100000e+01 2.125000e+02
    endloop
  endfacet
  facet normal 0.000000e+00 1.000000e+00 0.000000e+00
    outer loop
      vertex   2.100000e+01 2.100000e+01 2.125000e+02
      vertex   -2.100000e+01 2.100000e+01 0.000000e+00
      vertex   -2.100000e+01 2.100000e+01 2.125000e+02
    endloop
  endfacet
  facet normal 1.000000e+00 0.000000e+00 0.000000e+00
    outer loop
      vertex   2.100000e+01 -2.100000e+01 0.000000e+00
      vertex   2.100000e+01 2.100000e+01 0.000000e+00
      vertex   2.100000e+01 -2.100000e+01 2.125000e+02
    endloop
  endfacet
  facet normal 1.000000e+00 -0.000000e+00 0.000000e+00
    outer loop
      vertex   2.100000e+01 -2.100000e+01 2.125000e+02
      vertex   2.100000e+01 2.100000e+01 0.000000e+00
      vertex   2.100000e+01 2.100000e+01 2.125000e+02
    endloop
  endfacet
  facet normal 0.000000e+00 -1.000000e+00 0.000000e+00
    outer loop
      vertex   -2.100000e+01 -2.100000e+01 0.000000e+00
      vertex   2.100000e+01 -2.100000e+01 0.000000e+00
      vertex   -2.100000e+01 -2.100000e+01 2.125000e+02
    endloop
  endfacet
  facet normal 0.000000e+00 -1.000000e+00 0.000000e+00
    outer loop
      vertex   -2.100000e+01 -2.100000e+01 2.125000e+02
      vertex   2.100000e+01 -2.100000e+01 0.000000e+00
      vertex   2.100000e+01 -2.100000e+01 2.125000e+02
    endloop
  endfacet
  facet normal 0.000000e+00 0.000000e+00 1.000000e+00
    outer loop
      vertex   -1.635093e+01 -1.846418e+01 2.125000e+02
      vertex   1.609046e+01 -1.801303e+01 2.125000e+02
      vertex   -1.600000e+01 -1.750000e+01 2.125000e+02
    endloop
  endfacet
  facet normal -0.000000e+00 0.000000e+00 1.000000e+00
    outer loop
      vertex   -1.600000e+01 -1.750000e+01 2.125000e+02
      vertex   1.609046e+01 -1.801303e+01 2.125000e+02
      vertex   -1.510000e+01 -1.510000e+01 2.125000e+02
    endloop
  endfacet
  facet normal 0.000000e+00 -0.000000e+00 1.000000e+00
    outer loop
      vertex   -1.600000e+01 -1.750000e+01 2.125000e+02
      vertex   -1.510000e+01 -1.510000e+01 2.125000e+02
      vertex   -1.635093e+01 -1.653582e+01 2.125000e+02
    endloop
  endfacet
  facet normal 0.000000e+00 -0.000000e+00 1.000000e+00
    outer loop
      vertex   -1.635093e+01 -1.653582e+01 2.125000e+02
      vertex   -1.510000e+01 -1.510000e+01 2.125000e+02
      vertex   -1.723953e+01 -1.602279e+01 2.125000e+02
    endloop
  endfacet
  facet normal 0.000000e+00 -0.000000e+00 1.000000e+00
    outer loop
      vertex   -1.723953e+01 -1.602279e+01 2.125000e+02
      vertex   -1.510000e+01 -1.510000e+01 2.125000e+02
      vertex   -1.825000e+01 -1.620096e+01 2.125000e+02
    endloop
  endfacet
  facet normal 0.000000e+00 0.000000e+00 1.000000e+00
    outer loop
      vertex   -1.825000e+01 -1.620096e+01 2.125000e+02
      vertex   -1.510000e+01 -1.510000e+01 2.125000e+02
      vertex   -1.510000e+01 1.510000e+01 2.125000e+02
    endloop
  endfacet
  facet normal 0.000000e+00 0.000000e+00 1.000000e+00
    outer loop
      vertex   -1.825000e+01 -1.620096e+01 2.125000e+02
      vertex   -1.510000e+01 1.510000e+01 2.125000e+02
      vertex   -1.825000e+01 1.620096e+01 2.125000e+02
    endloop
  endfacet
  facet normal 0.000000e+00 0.000000e+00 1.000000e+00
    outer loop
      vertex   -1.825000e+01 1.620096e+01 2.125000e+02
      vertex   -1.510000e+01 1.510000e+01 2.125000e+02
      vertex   -1.723953e+01 1.602279e+01 2.125000e+02
    endloop
  endfacet
  facet normal -0.000000e+00 0.000000e+00 1.000000e+00
    outer loop
      vertex   -1.723953e+01 1.602279e+01 2.125000e+02
      vertex   -1.510000e+01 1.510000e+01 2.125000e+02
      vertex   -1.635093e+01 1.653582e+01 2.125000e+02
    endloop
  endfacet
  facet normal -0.000000e+00 0.000000e+00 1.000000e+00
    outer loop
      vertex   -1.635093e+01 1.653582e+01 2.125000e+02
      vertex   -1.510000e+01 1.510000e+01 2.125000e+02
      vertex   -1.600000e+01 1.750000e+01 2.125000e+02
    endloop
  endfacet
  facet normal -0.000000e+00 0.000000e+00 1.000000e+00
    outer loop
      vertex   -1.600000e+01 1.750000e+01 2.125000e+02
      vertex   -1.510000e+01 1.510000e+01 2.125000e+02
      vertex   1.609046e+01 1.801303e+01 2.125000e+02
    endloop
  endfacet
  facet normal 0.000000e+00 -0.000000e+00 1.000000e+00
    outer loop
      vertex   -1.600000e+01 1.750000e+01 2.125000e+02
      vertex   1.609046e+01 1.801303e+01 2.125000e+02
      vertex   -1.635093e+01 1.846418e+01 2.125000e+02
    endloop
  endfacet
  facet normal -0.000000e+00 0.000000e+00 1.000000e+00
    outer loop
      vertex   -1.635093e+01 1.846418e+01 2.125000e+02
      vertex   1.609046e+01 1.801303e+01 2.125000e+02
      vertex   1.675000e+01 1.879904e+01 2.125000e+02
    endloop
  endfacet
  facet normal 0.000000e+00 -0.000000e+00 1.000000e+00
    outer loop
      vertex   -1.635093e+01 1.846418e+01 2.125000e+02
      vertex   1.675000e+01 1.879904e+01 2.125000e+02
      vertex   -1.723953e+01 1.897721e+01 2.125000e+02
    endloop
  endfacet
  facet normal -0.000000e+00 0.000000e+00 1.000000e+00
    outer loop
      vertex   -1.723953e+01 1.897721e+01 2.125000e+02
      vertex   1.675000e+01 1.879904e+01 2.125000e+02
      vertex   2.100000e+01 2.100000e+01 2.125000e+02
    endloop
  endfacet
  facet normal 0.000000e+00 -0.000000e+00 1.000000e+00
    outer loop
      vertex   -1.723953e+01 1.897721e+01 2.125000e+02
      vertex   2.100000e+01 2.100000e+01 2.125000e+02
      vertex   -2.100000e+01 2.100000e+01 2.125000e+02
    endloop
  endfacet
  facet normal 0.000000e+00 0.000000e+00 1.000000e+00
    outer loop
      vertex   1.609046e+01 -1.801303e+01 2.125000e+02
      vertex   -1.635093e+01 -1.846418e+01 2.125000e+02
      vertex   1.675000e+01 -1.879904e+01 2.125000e+02
    endloop
  endfacet
  facet normal 0.000000e+00 0.000000e+00 1.000000e+00
    outer loop
      vertex   1.675000e+01 -1.879904e+01 2.125000e+02
      vertex   -1.635093e+01 -1.846418e+01 2.125000e+02
      vertex   -1.723953e+01 -1.897721e+01 2.125000e+02
    endloop
  endfacet
  facet normal 0.000000e+00 0.000000e+00 1.000000e+00
    outer loop
      vertex   1.675000e+01 -1.879904e+01 2.125000e+02
      vertex   -1.723953e+01 -1.897721e+01 2.125000e+02
      vertex   2.100000e+01 -2.100000e+01 2.125000e+02
    endloop
  endfacet
  facet normal 0.000000e+00 0.000000e+00 1.000000e+00
    outer loop
      vertex   2.100000e+01 -2.100000e+01 2.125000e+02
      vertex   -1.723953e+01 -1.897721e+01 2.125000e+02
      vertex   -2.100000e+01 -2.100000e+01 2.125000e+02
    endloop
  endfacet
  facet normal 0.000000e+00 0.000000e+00 1.000000e+00
    outer loop
      vertex   -2.100000e+01 -2.100000e+01 2.125000e+02
      vertex   -1.723953e+01 -1.897721e+01 2.125000e+02
      vertex   -1.825000e+01 -1.879904e+01 2.125000e+02
    endloop
  endfacet
  facet normal 0.000000e+00 0.000000e+00 1.000000e+00
    outer loop
      vertex   -2.100000e+01 -2.100000e+01 2.125000e+02
      vertex   -1.825000e+01 -1.879904e+01 2.125000e+02
      vertex   -1.890954e+01 -1.801303e+01 2.125000e+02
    endloop
  endfacet
  facet normal 0.000000e+00 -0.000000e+00 1.000000e+00
    outer loop
      vertex   -1.890954e+01 -1.801303e+01 2.125000e+02
      vertex   -1.890954e+01 -1.698697e+01 2.125000e+02
      vertex   -2.100000e+01 -2.100000e+01 2.125000e+02
    endloop
  endfacet
  facet normal 0.000000e+00 0.000000e+00 1.000000e+00
    outer loop
      vertex   -2.100000e+01 -2.100000e+01 2.125000e+02
      vertex   -1.890954e+01 -1.698697e+01 2.125000e+02
      vertex   -1.890954e+01 1.698697e+01 2.125000e+02
    endloop
  endfacet
  facet normal 0.000000e+00 0.000000e+00 1.000000e+00
    outer loop
      vertex   -2.100000e+01 -2.100000e+01 2.125000e+02
      vertex   -1.890954e+01 1.698697e+01 2.125000e+02
      vertex   -2.100000e+01 2.100000e+01 2.125000e+02
    endloop
  endfacet
  facet normal 0.000000e+00 0.000000e+00 1.000000e+00
    outer loop
      vertex   -2.100000e+01 2.100000e+01 2.125000e+02
      vertex   -1.890954e+01 1.698697e+01 2.125000e+02
      vertex   -1.890954e+01 1.801303e+01 2.125000e+02
    endloop
  endfacet
  facet normal 0.000000e+00 0.000000e+00 1.000000e+00
    outer loop
      vertex   -2.100000e+01 2.100000e+01 2.125000e+02
      vertex   -1.890954e+01 1.801303e+01 2.125000e+02
      vertex   -1.825000e+01 1.879904e+01 2.125000e+02
    endloop
  endfacet
  facet normal 0.000000e+00 0.000000e+00 1.000000e+00
    outer loop
      vertex   -1.890954e+01 1.698697e+01 2.125000e+02
      vertex   -1.890954e+01 -1.698697e+01 2.125000e+02
      vertex   -1.825000e+01 1.620096e+01 2.125000e+02
    endloop
  endfacet
  facet normal 0.000000e+00 0.000000e+00 1.000000e+00
    outer loop
      vertex   -1.825000e+01 1.620096e+01 2.125000e+02
      vertex   -1.890954e+01 -1.698697e+01 2.125000e+02
      vertex   -1.825000e+01 -1.620096e+01 2.125000e+02
    endloop
  endfacet
  facet normal -0.000000e+00 0.000000e+00 1.000000e+00
    outer loop
      vertex   1.864907e+01 1.846418e+01 2.125000e+02
      vertex   1.900000e+01 1.750000e+01 2.125000e+02
      vertex   2.100000e+01 2.100000e+01 2.125000e+02
    endloop
  endfacet
  facet normal 0.000000e+00 0.000000e+00 1.000000e+00
    outer loop
      vertex   2.100000e+01 2.100000e+01 2.125000e+02
      vertex   1.900000e+01 1.750000e+01 2.125000e+02
      vertex   1.864907e+01 1.653582e+01 2.125000e+02
    endloop
  endfacet
  facet normal 0.000000e+00 0.000000e+00 1.000000e+00
    outer loop
      vertex   2.100000e+01 2.100000e+01 2.125000e+02
      vertex   1.864907e+01 1.653582e+01 2.125000e+02
      vertex   2.100000e+01 -2.100000e+01 2.125000e+02
    endloop
  endfacet
  facet normal 0.000000e+00 0.000000e+00 1.000000e+00
    outer loop
      vertex   2.100000e+01 -2.100000e+01 2.125000e+02
      vertex   1.864907e+01 1.653582e+01 2.125000e+02
      vertex   1.864907e+01 -1.653582e+01 2.125000e+02
    endloop
  endfacet
  facet normal 0.000000e+00 0.000000e+00 1.000000e+00
    outer loop
      vertex   2.100000e+01 -2.100000e+01 2.125000e+02
      vertex   1.864907e+01 -1.653582e+01 2.125000e+02
      vertex   1.900000e+01 -1.750000e+01 2.125000e+02
    endloop
  endfacet
  facet normal 0.000000e+00 0.000000e+00 1.000000e+00
    outer loop
      vertex   1.864907e+01 1.653582e+01 2.125000e+02
      vertex   1.776047e+01 1.602279e+01 2.125000e+02
      vertex   1.864907e+01 -1.653582e+01 2.125000e+02
    endloop
  endfacet
  facet normal 0.000000e+00 0.000000e+00 1.000000e+00
    outer loop
      vertex   1.864907e+01 -1.653582e+01 2.125000e+02
      vertex   1.776047e+01 1.602279e+01 2.125000e+02
      vertex   1.776047e+01 -1.602279e+01 2.125000e+02
    endloop
  endfacet
  facet normal 0.000000e+00 -0.000000e+00 1.000000e+00
    outer loop
      vertex   1.776047e+01 -1.602279e+01 2.125000e+02
      vertex   1.776047e+01 1.602279e+01 2.125000e+02
      vertex   1.510000e+01 1.510000e+01 2.125000e+02
    endloop
  endfacet
  facet normal 0.000000e+00 0.000000e+00 1.000000e+00
    outer loop
      vertex   1.776047e+01 -1.602279e+01 2.125000e+02
      vertex   1.510000e+01 1.510000e+01 2.125000e+02
      vertex   1.510000e+01 -1.510000e+01 2.125000e+02
    endloop
  endfacet
  facet normal 0.000000e+00 0.000000e+00 1.000000e+00
    outer loop
      vertex   1.776047e+01 1.602279e+01 2.125000e+02
      vertex   1.675000e+01 1.620096e+01 2.125000e+02
      vertex   1.510000e+01 1.510000e+01 2.125000e+02
    endloop
  endfacet
  facet normal 0.000000e+00 0.000000e+00 1.000000e+00
    outer loop
      vertex   1.510000e+01 1.510000e+01 2.125000e+02
      vertex   1.675000e+01 1.620096e+01 2.125000e+02
      vertex   1.609046e+01 1.698697e+01 2.125000e+02
    endloop
  endfacet
  facet normal 0.000000e+00 0.000000e+00 1.000000e+00
    outer loop
      vertex   1.510000e+01 1.510000e+01 2.125000e+02
      vertex   1.609046e+01 1.698697e+01 2.125000e+02
      vertex   1.609046e+01 1.801303e+01 2.125000e+02
    endloop
  endfacet
  facet normal 0.000000e+00 0.000000e+00 1.000000e+00
    outer loop
      vertex   1.675000e+01 1.879904e+01 2.125000e+02
      vertex   1.776047e+01 1.897721e+01 2.125000e+02
      vertex   2.100000e+01 2.100000e+01 2.125000e+02
    endloop
  endfacet
  facet normal 0.000000e+00 0.000000e+00 1.000000e+00
    outer loop
      vertex   2.100000e+01 2.100000e+01 2.125000e+02
      vertex   1.776047e+01 1.897721e+01 2.125000e+02
      vertex   1.864907e+01 1.846418e+01 2.125000e+02
    endloop
  endfacet
  facet normal 0.000000e+00 0.000000e+00 1.000000e+00
    outer loop
      vertex   1.900000e+01 -1.750000e+01 2.125000e+02
      vertex   1.864907e+01 -1.846418e+01 2.125000e+02
      vertex   2.100000e+01 -2.100000e+01 2.125000e+02
    endloop
  endfacet
  facet normal 0.000000e+00 0.000000e+00 1.000000e+00
    outer loop
      vertex   2.100000e+01 -2.100000e+01 2.125000e+02
      vertex   1.864907e+01 -1.846418e+01 2.125000e+02
      vertex   1.776047e+01 -1.897721e+01 2.125000e+02
    endloop
  endfacet
  facet normal 0.000000e+00 0.000000e+00 1.000000e+00
    outer loop
      vertex   2.100000e+01 -2.100000e+01 2.125000e+02
      vertex   1.776047e+01 -1.897721e+01 2.125000e+02
      vertex   1.675000e+01 -1.879904e+01 2.125000e+02
    endloop
  endfacet
  facet normal -0.000000e+00 0.000000e+00 1.000000e+00
    outer loop
      vertex   -1.510000e+01 -1.510000e+01 2.125000e+02
      vertex   1.609046e+01 -1.801303e+01 2.125000e+02
      vertex   1.510000e+01 -1.510000e+01 2.125000e+02
    endloop
  endfacet
  facet normal 0.000000e+00 0.000000e+00 1.000000e+00
    outer loop
      vertex   1.510000e+01 -1.510000e+01 2.125000e+02
      vertex   1.609046e+01 -1.801303e+01 2.125000e+02
      vertex   1.609046e+01 -1.698697e+01 2.125000e+02
    endloop
  endfacet
  facet normal 0.000000e+00 0.000000e+00 1.000000e+00
    outer loop
      vertex   1.510000e+01 -1.510000e+01 2.125000e+02
      vertex   1.609046e+01 -1.698697e+01 2.125000e+02
      vertex   1.675000e+01 -1.620096e+01 2.125000e+02
    endloop
  endfacet
  facet normal 0.000000e+00 -0.000000e+00 1.000000e+00
    outer loop
      vertex   1.675000e+01 -1.620096e+01 2.125000e+02
      vertex   1.776047e+01 -1.602279e+01 2.125000e+02
      vertex   1.510000e+01 -1.510000e+01 2.125000e+02
    endloop
  endfacet
  facet normal 0.000000e+00 -0.000000e+00 1.000000e+00
    outer loop
      vertex   -1.825000e+01 1.879904e+01 2.125000e+02
      vertex   -1.723953e+01 1.897721e+01 2.125000e+02
      vertex   -2.100000e+01 2.100000e+01 2.125000e+02
    endloop
  endfacet
  facet normal 0.000000e+00 0.000000e+00 1.000000e+00
    outer loop
      vertex   -1.510000e+01 1.510000e+01 2.125000e+02
      vertex   1.510000e+01 1.510000e+01 2.125000e+02
      vertex   1.609046e+01 1.801303e+01 2.125000e+02
    endloop
  endfacet
  facet normal -0.000000e+00 0.000000e+00 -1.000000e+00
    outer loop
      vertex   -1.260000e+01 -1.260000e+01 0.000000e+00
      vertex   -2.100000e+01 -2.100000e+01 0.000000e+00
      vertex   -1.260000e+01 1.260000e+01 0.000000e+00
    endloop
  endfacet
  facet normal -0.000000e+00 0.000000e+00 -1.000000e+00
    outer loop
      vertex   -1.260000e+01 1.260000e+01 0.000000e+00
      vertex   -2.100000e+01 -2.100000e+01 0.000000e+00
      vertex   -2.100000e+01 2.100000e+01 0.000000e+00
    endloop
  endfacet
  facet normal 0.000000e+00 0.000000e+00 -1.000000e+00
    outer loop
      vertex   -1.260000e+01 1.260000e+01 0.000000e+00
      vertex   -2.100000e+01 2.100000e+01 0.000000e+00
      vertex   2.100000e+01 2.100000e+01 0.000000e+00
    endloop
  endfacet
  facet normal 0.000000e+00 -0.000000e+00 -1.000000e+00
    outer loop
      vertex   -1.260000e+01 -1.260000e+01 0.000000e+00
      vertex   1.260000e+01 -1.260000e+01 0.000000e+00
      vertex   -2.100000e+01 -2.100000e+01 0.000000e+00
    endloop
  endfacet
  facet normal 0.000000e+00 0.000000e+00 -1.000000e+00
    outer loop
      vertex   -2.100000e+01 -2.100000e+01 0.000000e+00
      vertex   1.260000e+01 -1.260000e+01 0.000000e+00
      vertex   2.100000e+01 -2.100000e+01 0.000000e+00
    endloop
  endfacet
  facet normal 0.000000e+00 0.000000e+00 -1.000000e+00
    outer loop
      vertex   2.100000e+01 -2.100000e+01 0.000000e+00
      vertex   1.260000e+01 -1.260000e+01 0.000000e+00
      vertex   1.260000e+01 1.260000e+01 0.000000e+00
    endloop
  endfacet
  facet normal 0.000000e+00 0.000000e+00 -1.000000e+00
    outer loop
      vertex   2.100000e+01 -2.100000e+01 0.000000e+00
      vertex   1.260000e+01 1.260000e+01 0.000000e+00
      vertex   2.100000e+01 2.100000e+01 0.000000e+00
    endloop
  endfacet
  facet normal 0.000000e+00 0.000000e+00 -1.000000e+00
    outer loop
      vertex   2.100000e+01 2.100000e+01 0.000000e+00
      vertex   1.260000e+01 1.260000e+01 0.000000e+00
      vertex   -1.260000e+01 1.260000e+01 0.000000e+00
    endloop
  endfacet
endsolid
